<?xml version="1.0" encoding="iso-8859-1"?>
<!-- Generator: Adobe Illustrator 19.0.0, SVG Export Plug-In . SVG Version: 6.00 Build 0)  -->
<svg version="1.1" id="Layer_1" xmlns="http://www.w3.org/2000/svg" xmlns:xlink="http://www.w3.org/1999/xlink" x="0px" y="0px"
	 viewBox="0 0 496.2 496.2" style="enable-background:new 0 0 496.2 496.2;" xml:space="preserve">
<path style="fill:#D0E4F2;" d="M0,248.1C0,111.1,111.1,0,248.1,0s248.1,111.1,248.1,248.1S385.1,496.2,248.1,496.2S0,385.1,0,248.1z
	"/>
<path style="fill:#282D4D;" d="M187.4,262.5c0,0,1.6-9.1,4.9-19.8c-0.9-4.2-1.7-8.5-2.5-13c0,0-15.8-75.7-42.6-75.7
	c-26.7,0-40.1,75.7-40.1,75.7C88.9,331.9,52.4,338.3,52.4,338.3h96.4C148.9,338.3,174.6,334.5,187.4,262.5z"/>
<path style="fill:#5B84CB;" d="M249.7,281.3c-1.4-5.7-2.8-11.9-4-18.8c0,0-11.1-52.6-30-52.6c-11,0-18.8,17.9-23.4,32.8
	c9.7,45.9,23.1,69.9,33.9,82.3C233.5,316.7,242,303.2,249.7,281.3z"/>
<path style="opacity:0.9;fill:#16193B;enable-background:new    ;" d="M226.3,325c-10.8-12.4-24.3-36.4-33.9-82.3
	c-3.3,10.7-4.9,19.8-4.9,19.8c-12.8,72-38.6,75.8-38.6,75.8h59.2C208,338.3,216,336.9,226.3,325z"/>
<path style="fill:#4A72BB;" d="M226.3,325c-10.8-12.4-24.3-36.4-33.9-82.3c-3.3,10.7-4.9,19.8-4.9,19.8
	c-12.8,72-38.6,75.8-38.6,75.8h59.2C208,338.3,216,336.9,226.3,325z"/>
<path style="fill:#445696;" d="M343,262.5c0,0,1.6-9.1,4.9-19.8c-0.9-4.2-1.7-8.5-2.5-13c0,0-15.8-75.7-42.6-75.7
	c-26.7,0-40.1,75.7-40.1,75.7c-3.7,21-8.3,37.9-13.1,51.6c13.5,53.9,34.6,57,34.6,57h20.3C304.5,338.3,330.2,334.5,343,262.5z"/>
<path style="opacity:0.9;fill:#4E7AC7;enable-background:new    ;" d="M249.7,281.3c-7.7,21.9-16.1,35.4-23.4,43.7
	c10.3,11.8,18.2,13.2,18.2,13.2h39.7C284.2,338.3,263.2,335.2,249.7,281.3z"/>
<path style="fill:#394D92;" d="M249.7,281.3c-7.7,21.9-16.1,35.4-23.4,43.7c10.3,11.8,18.2,13.2,18.2,13.2h39.7
	C284.2,338.3,263.2,335.2,249.7,281.3z"/>
<g>
	<path id="SVGCleanerId_0" style="fill:#16193B;" d="M226.3,325c-10.3,11.8-18.2,13.2-18.2,13.2h36.5
		C244.5,338.3,236.6,336.9,226.3,325z"/>
</g>
<g>
	<path id="SVGCleanerId_0_1_" style="fill:#4E7AC7;" d="M226.3,325c-10.3,11.8-18.2,13.2-18.2,13.2h36.5
		C244.5,338.3,236.6,336.9,226.3,325z"/>
</g>
<g>
	<path id="SVGCleanerId_0_2_" style="fill:#394D92;" d="M226.3,325c-10.3,11.8-18.2,13.2-18.2,13.2h36.5
		C244.5,338.3,236.6,336.9,226.3,325z"/>
</g>
<path style="fill:#87B7F0;" d="M401.3,262.5c0,0-11.1-52.6-30-52.6c-11,0-18.8,17.9-23.4,32.8c18.9,89.7,52.2,95.6,52.2,95.6h39.7
	C439.9,338.3,414.1,334.5,401.3,262.5z"/>
<path style="fill:#79A9E7;" d="M347.9,242.7c-3.3,10.7-4.9,19.8-4.9,19.8c-12.8,72-38.6,75.8-38.6,75.8h95.7
	C400.1,338.3,366.8,332.4,347.9,242.7z"/>
<g>
</g>
<g>
</g>
<g>
</g>
<g>
</g>
<g>
</g>
<g>
</g>
<g>
</g>
<g>
</g>
<g>
</g>
<g>
</g>
<g>
</g>
<g>
</g>
<g>
</g>
<g>
</g>
<g>
</g>
</svg>
