<?xml version="1.0" encoding="iso-8859-1"?>
<!-- Generator: Adobe Illustrator 19.0.0, SVG Export Plug-In . SVG Version: 6.00 Build 0)  -->
<svg version="1.1" id="Layer_1" xmlns="http://www.w3.org/2000/svg" xmlns:xlink="http://www.w3.org/1999/xlink" x="0px" y="0px"
	 viewBox="0 0 392.598 392.598" style="enable-background:new 0 0 392.598 392.598;" xml:space="preserve">
<path style="fill:#FFFFFF;" d="M355.529,162.133c0-77.382-62.966-140.347-140.347-140.347S74.963,84.752,74.963,162.133v33.487
	c0,2.069-0.646,4.073-1.681,5.883l-33.487,52.752h24.242c6.012,0,10.925,4.848,10.925,10.925v25.083
	c0,6.659,5.43,12.154,12.154,12.154h26.246c6.012,0,10.925,4.848,10.925,10.925v57.406h157.285
	c2.263-44.283,18.23-87.919,45.576-124.121C345.702,222.125,355.529,192.97,355.529,162.133z"/>
<path style="fill:#FFC10D;" d="M146.009,348.962V280.63H96.684v-48.162H79.359l17.325-27.345v-43.055
	c0-65.358,53.139-118.562,118.562-118.562s118.562,53.204,118.562,118.626c0,26.053-8.275,50.683-23.984,71.37
	c-25.729,33.939-42.279,74.02-47.968,115.459H146.009L146.009,348.962z"/>
<path style="fill:#FFFFFF;" d="M217.961,141.705c-15.709,0-28.509,12.735-28.509,28.509s12.735,28.509,28.509,28.509
	s28.509-12.735,28.509-28.509S233.67,141.705,217.961,141.705z"/>
<path style="fill:#56ACE0;" d="M310.923,176.614v-12.8h-17.002c-5.107,0-9.503-3.556-10.667-8.469
	c-1.681-7.434-4.59-14.352-8.663-20.881c-2.715-4.331-2.069-9.891,1.552-13.511l12.024-11.96l-9.05-9.051l-12.024,11.96
	c-3.62,3.62-9.18,4.267-13.511,1.552c-6.4-4.008-13.446-6.982-20.816-8.663c-4.913-1.164-8.469-5.56-8.469-10.667V77.123h-12.735
	v17.002c0,5.107-3.556,9.503-8.469,10.667c-7.434,1.681-14.352,4.59-20.881,8.663c-4.331,2.715-9.891,2.069-13.511-1.552
	l-12.024-11.96l-8.986,9.05l12.024,12.024c3.62,3.62,4.267,9.18,1.552,13.511c-4.008,6.4-6.982,13.446-8.663,20.816
	c-1.164,4.913-5.56,8.469-10.667,8.469h-17.002v12.735h17.002c5.107,0,9.503,3.556,10.667,8.469
	c1.681,7.434,4.59,14.352,8.663,20.816c2.715,4.331,2.069,9.891-1.552,13.511L147.69,231.37l9.051,9.051l12.024-11.96
	c3.62-3.62,9.18-4.267,13.511-1.552c6.4,4.008,13.446,6.982,20.881,8.663c4.913,1.164,8.469,5.56,8.469,10.667v17.002h12.735
	v-17.002c0-5.107,3.556-9.503,8.469-10.667c7.434-1.681,14.352-4.59,20.881-8.663c4.331-2.715,9.891-2.069,13.511,1.552
	l12.024,11.96l9.051-9.051l-12.218-11.96c-3.62-3.62-4.267-9.18-1.551-13.511c4.008-6.4,6.982-13.446,8.663-20.881
	c1.164-4.913,5.56-8.469,10.667-8.469h17.002v0.065H310.923z M217.961,220.315c-27.604,0-50.101-22.497-50.101-50.101
	s22.497-50.101,50.101-50.101s50.036,22.497,50.036,50.101S245.565,220.315,217.961,220.315z"/>
<g>
	<path style="fill:#194F82;" d="M215.181,0C125.775,0,53.048,72.727,53.048,162.133v30.384l-34.909,55.079
		c-7.952,11.378,0.905,28.832,15.709,28.509h19.265v14.222c0,18.683,15.192,33.939,33.939,33.939h15.386v57.406
		c0,6.012,4.848,10.925,10.925,10.925H292.24c6.012,0,10.925-4.848,10.925-10.925c0-43.184,14.739-86.497,41.503-121.859
		c21.398-28.251,32.776-62.125,32.776-97.681C377.314,72.727,304.587,0,215.181,0z M327.149,246.626
		c-27.345,36.137-43.378,79.838-45.576,124.121H124.224v-57.406c0-6.012-4.848-10.925-10.925-10.925H87.052
		c-6.659,0-12.154-5.43-12.154-12.154V265.18c0-6.012-4.848-10.925-10.925-10.925H39.731l33.487-52.752
		c1.099-1.745,1.681-3.814,1.681-5.883v-33.552c0-77.382,62.966-140.347,140.347-140.347s140.347,62.966,140.347,140.347
		C355.529,192.97,345.702,222.125,327.149,246.626z"/>
	<path style="fill:#194F82;" d="M217.961,120.178c-27.604,0-50.101,22.497-50.101,50.101s22.497,50.101,50.101,50.101
		s50.101-22.497,50.101-50.101S245.565,120.178,217.961,120.178z M217.961,198.529c-15.58,0-28.251-12.671-28.251-28.251
		s12.671-28.251,28.251-28.251s28.251,12.671,28.251,28.251S233.476,198.529,217.961,198.529z"/>
	<path style="fill:#194F82;" d="M321.783,142.028h-19.653c-1.293-3.943-2.909-7.758-4.719-11.442l13.899-13.899
		c4.267-4.267,4.267-11.119,0-15.451L286.874,76.8c-4.267-4.267-11.119-4.267-15.451,0l-13.899,13.899
		c-3.685-1.875-7.564-3.491-11.442-4.719V66.263c0-6.012-4.848-10.925-10.925-10.925h-34.521c-6.012,0-10.925,4.848-10.925,10.925
		v19.653c-3.943,1.293-7.758,2.909-11.442,4.719l-13.899-13.899c-4.267-4.267-11.119-4.267-15.451,0l-24.436,24.436
		c-4.267,4.267-4.267,11.119,0,15.451l13.899,13.899c-1.875,3.685-3.491,7.564-4.719,11.442h-19.653
		c-6.012,0-10.925,4.848-10.925,10.925v34.521c0,6.012,4.848,10.925,10.925,10.925h19.459c1.293,3.943,2.909,7.758,4.719,11.442
		l-13.705,13.834c-4.267,4.267-4.267,11.119,0,15.451l24.436,24.436c4.267,4.267,11.119,4.267,15.451,0l13.899-13.899
		c3.685,1.875,7.564,3.491,11.442,4.719v19.653c0,6.012,4.848,10.925,10.925,10.925h34.521c6.012,0,10.925-4.848,10.925-10.925
		v-19.653c3.943-1.293,7.758-2.909,11.442-4.719l13.899,13.899c4.267,4.267,11.119,4.267,15.451,0l24.436-24.436
		c4.267-4.267,4.267-11.119,0-15.451l-13.899-13.899c1.875-3.685,3.491-7.564,4.719-11.442h19.523
		c6.012,0,10.925-4.848,10.925-10.925v-34.521C332.708,146.877,327.86,142.028,321.783,142.028z M310.923,176.614h-17.002
		c-5.107,0-9.503,3.556-10.667,8.469c-1.681,7.434-4.59,14.352-8.663,20.816c-2.715,4.331-2.069,9.891,1.552,13.511l11.96,12.024
		l-9.051,9.051l-12.024-11.895c-3.62-3.62-9.18-4.267-13.511-1.552c-6.4,4.008-13.446,6.982-20.881,8.663
		c-4.913,1.164-8.469,5.56-8.469,10.667v17.002h-12.735v-17.002c0-5.107-3.556-9.503-8.469-10.667
		c-7.434-1.681-14.352-4.59-20.881-8.663c-4.331-2.715-9.891-2.069-13.511,1.552l-12.024,11.96l-9.051-9.051l11.96-12.024
		c3.62-3.62,4.267-9.18,1.552-13.511c-4.008-6.4-6.982-13.446-8.663-20.816c-1.164-4.913-5.56-8.469-10.667-8.469h-17.002v-12.8
		h17.002c5.107,0,9.503-3.556,10.667-8.469c1.681-7.434,4.59-14.352,8.663-20.816c2.715-4.331,2.069-9.891-1.552-13.511
		l-11.766-12.024l9.051-9.051l12.024,11.96c3.62,3.62,9.18,4.267,13.511,1.552c6.4-4.008,13.446-6.982,20.816-8.663
		c4.913-1.164,8.469-5.56,8.469-10.667V77.188h12.735v16.937c0,5.107,3.556,9.503,8.469,10.667
		c7.434,1.681,14.352,4.59,20.816,8.663c4.331,2.715,9.956,2.069,13.511-1.552l12.024-11.96l9.051,9.05l-11.96,12.024
		c-3.62,3.62-4.267,9.18-1.552,13.511c4.008,6.4,6.982,13.446,8.663,20.816c1.164,4.913,5.56,8.469,10.667,8.469h17.002v12.8
		H310.923z"/>
</g>
<g>
</g>
<g>
</g>
<g>
</g>
<g>
</g>
<g>
</g>
<g>
</g>
<g>
</g>
<g>
</g>
<g>
</g>
<g>
</g>
<g>
</g>
<g>
</g>
<g>
</g>
<g>
</g>
<g>
</g>
</svg>
